<svg width="415" height="138" viewBox="0 0 415 138" fill="none" xmlns="http://www.w3.org/2000/svg">
<g clip-path="url(#clip0)">
<path d="M81.2139 11.6617C61.6139 12.1617 42.7139 15.8617 25.2139 25.2617C20.8139 27.6617 16.6139 30.4617 13.6139 34.5617C10.9139 38.2617 8.81392 42.2617 11.3139 46.9617C11.8139 47.8617 11.9139 48.9617 11.1139 49.7617C10.2139 50.7617 9.11392 50.3617 8.11392 50.0617C6.51392 49.5617 5.41392 48.4617 4.41392 47.2617C-1.78608 39.3617 -1.48608 29.9617 5.51392 22.6617C12.1139 15.7617 20.2139 11.2617 29.0139 7.86174C47.9139 0.561738 67.4139 -1.33826 87.4139 0.861738C98.9139 2.16174 109.514 5.46174 119.114 12.0617C131.614 20.6617 137.614 32.7617 138.414 47.5617C139.214 62.9617 134.014 76.6617 126.214 89.5617C114.614 108.762 99.2139 123.962 78.4139 133.062C69.5139 136.962 60.3139 139.262 50.5139 138.262C45.0139 137.662 40.5139 135.562 38.6139 129.962C38.5139 129.562 38.3139 129.162 38.2139 128.762C38.1139 127.362 37.4139 125.762 38.8139 124.862C40.2139 123.962 41.4139 125.262 42.3139 126.062C46.0139 129.162 50.3139 129.062 54.6139 128.262C66.6139 126.162 76.8139 120.462 86.3139 113.162C103.614 99.8617 116.514 83.1617 123.714 62.3617C126.314 54.7617 127.414 46.9617 126.314 38.9617C124.514 26.5617 116.714 19.2617 105.314 15.1617C97.6139 12.4617 89.5139 11.5617 81.2139 11.6617Z" fill="#4BD2B2"/>
<path d="M23.914 122.862C24.314 114.062 26.014 107.462 27.914 100.962C33.814 80.6617 41.014 60.9617 50.514 42.0617C53.414 36.2617 56.814 30.7617 60.714 25.4617C61.914 23.9617 63.214 22.4617 64.814 21.5617C67.514 19.9617 70.314 20.2617 72.214 22.1617C74.214 24.2617 74.514 26.3617 72.614 29.1617C68.314 35.5617 65.014 42.4617 61.814 49.4617C52.214 70.5617 44.114 92.1617 38.014 114.462C36.914 118.662 36.114 122.862 35.914 127.262C35.714 131.662 32.714 133.262 28.914 130.962C25.214 128.662 23.714 125.262 23.914 122.862Z" fill="#4BD2B2"/>
<path fill-rule="evenodd" clip-rule="evenodd" d="M218.514 83.6617C217.093 83.8257 215.821 84.2287 214.568 84.6257C213.528 84.9551 212.502 85.2804 211.414 85.4617C208.214 85.9617 205.014 86.3617 201.714 85.7617C200.014 85.4618 199.414 85.9617 198.814 87.5617C195.414 96.4617 190.814 104.762 184.114 111.762C179.214 116.862 173.814 120.862 166.514 121.862C153.914 123.662 142.914 115.362 141.114 102.762C139.714 93.0617 142.114 84.0617 145.914 75.3617C150.714 64.3617 157.514 55.0617 167.314 47.9617C178.114 40.0617 196.414 44.8617 201.614 57.9617C203.614 63.0617 203.614 68.2617 202.514 73.4617C202.014 75.7617 202.914 76.4617 204.814 76.4617C211.114 76.6617 216.614 74.5618 221.414 70.7618C222.261 70.1454 222.515 69.1134 222.77 68.0776C222.846 67.769 222.922 67.4601 223.014 67.1617C224.414 62.5617 226.114 58.0617 228.014 53.5617C229.014 51.1617 230.514 49.0617 232.914 47.8617C235.514 46.6617 238.114 46.9617 240.114 48.8617C241.914 50.5617 242.314 52.8617 241.314 55.5617C235.714 70.3617 231.314 85.5617 229.014 101.262C228.714 103.262 228.714 105.262 228.814 107.262C229.014 110.462 230.814 111.362 233.514 109.862C235.914 108.562 237.914 106.762 239.714 104.862C248.514 95.4617 255.214 84.6617 261.614 73.6617C262.577 71.9761 262.888 70.0367 263.201 68.0837C263.408 66.7926 263.616 65.4955 264.014 64.2618C265.414 59.4618 267.014 54.7617 269.914 50.5617C272.014 47.6617 274.714 45.7617 278.514 45.9617C282.414 46.2617 285.114 49.4617 284.314 53.3617C283.314 58.6617 280.414 63.0617 277.314 67.3617C274.514 71.2617 272.314 75.1617 272.614 80.1617C272.814 82.4617 273.214 84.6617 274.014 86.6617C275.714 90.8617 279.314 92.4617 283.314 90.4617C288.414 87.8617 292.614 84.4617 294.514 78.4617C298.114 67.0617 304.214 57.0617 314.114 49.9617C319.414 46.1617 325.214 44.3617 331.814 45.9617C338.514 47.5617 343.614 54.0617 344.114 60.9617C344.514 67.1617 342.514 72.6617 339.214 77.6617C334.114 85.4617 328.014 91.9617 318.614 94.5617C314.814 95.6617 311.014 95.7617 307.414 94.0617C305.814 93.2617 305.514 93.7617 305.314 95.3617L305.309 95.4213C305.011 99.0004 304.72 102.481 305.914 105.962C307.914 111.462 311.714 113.462 317.414 112.462C323.614 111.262 328.914 108.262 333.914 104.562C343.014 97.8617 350.214 89.2617 356.414 79.9617C358.189 77.23 359.079 74.0319 359.974 70.8133C360.39 69.319 360.806 67.8203 361.314 66.3617C362.064 64.3118 362.789 62.2869 363.514 60.262L363.514 60.2618C364.239 58.2368 364.964 56.2118 365.714 54.1617C366.014 53.3617 366.414 52.6617 366.814 51.9617C368.714 48.6617 372.214 47.3617 375.214 48.7617C378.114 50.0617 379.314 53.5617 378.014 57.1617C376.964 60.1118 375.914 63.0368 374.864 65.9618C373.814 68.8868 372.764 71.8118 371.714 74.7618C371.514 75.1618 371.514 75.6617 371.714 76.2617C372.314 75.4618 372.889 74.6617 373.464 73.8617C374.039 73.0617 374.614 72.2617 375.214 71.4617C379.614 65.3617 384.414 59.6617 390.114 54.6617C393.714 51.5617 397.614 48.8617 402.514 48.1617C405.714 47.6617 408.214 48.6617 410.314 51.0617C413.914 55.4617 414.614 60.6617 414.814 66.0617C414.814 67.3617 414.214 68.5618 412.714 68.7618C411.314 68.9618 410.014 68.4617 409.314 67.1617C408.98 66.4953 408.736 65.7399 408.492 64.9846L408.492 64.984C408.369 64.6062 408.247 64.2284 408.114 63.8617C407.014 60.6617 404.714 59.3617 401.514 60.2617C396.914 61.5617 393.514 64.6617 390.314 67.9617C381.714 77.0617 374.914 87.3617 368.814 98.2617C365.514 104.162 363.114 110.462 361.014 116.862C360.014 119.962 357.714 121.462 355.014 120.862C352.014 120.262 349.914 118.562 348.714 115.762C348.114 114.262 348.014 112.662 348.414 111.062C348.694 109.52 349.023 107.979 349.367 106.369L349.368 106.368C349.515 105.68 349.664 104.98 349.814 104.262C348.786 104.657 348.196 105.302 347.649 105.9L347.648 105.9C347.503 106.059 347.361 106.215 347.214 106.362C341.014 112.562 334.214 117.862 325.914 120.862C315.214 124.762 304.114 122.362 297.414 114.762C294.214 111.162 292.514 106.862 291.714 102.162L291.713 102.158C291.513 100.959 291.314 99.7605 291.114 98.4617C276.014 103.662 270.714 101.562 264.214 87.8617C262.912 89.2363 261.923 90.8202 260.946 92.3862C260.573 92.9849 260.201 93.581 259.814 94.1617C258.696 95.7869 257.605 97.4249 256.515 99.061L256.514 99.0621C253.311 103.869 250.118 108.66 246.314 113.062L246.103 113.299C243.073 116.723 240.005 120.189 235.314 121.362C224.814 124.062 215.614 117.162 215.314 106.162C215.114 99.4617 216.314 92.8617 217.614 86.3617C218.114 85.3617 218.314 84.5617 218.514 83.6617ZM153.314 101.362C153.814 91.8617 157.214 83.2617 161.614 74.9617C164.814 68.9617 168.714 63.5617 173.814 58.9617C177.314 55.8617 181.114 53.4617 186.114 53.6617C189.014 53.7617 190.714 55.2617 191.314 58.0617L191.325 58.1424C191.421 58.8007 191.491 59.285 190.914 59.8617C186.514 64.6617 186.214 70.2617 188.114 76.1617C188.514 77.4617 188.514 78.5617 188.014 79.7617C184.114 89.3617 178.814 98.1617 171.614 105.762C169.414 108.062 166.914 109.962 163.914 111.162C158.314 113.462 155.014 111.662 153.614 105.762C153.413 104.827 153.392 103.847 153.369 102.852C153.358 102.358 153.347 101.86 153.314 101.362ZM334.114 64.0617C334.814 62.5617 335.114 61.0617 335.114 60.0617C335.214 55.3617 332.814 53.6617 328.814 55.0617C326.014 56.1617 323.814 57.9617 321.814 60.1617C315.514 67.0617 311.714 75.3617 308.414 83.9617C307.814 85.4617 308.714 85.7617 309.814 85.8617C312.614 86.0617 315.114 85.1618 317.414 83.7617C325.114 79.0618 330.514 72.2617 334.114 64.0617Z" fill="#4BD2B2"/>
</g>
<defs>
<clipPath id="clip0">
<rect width="415" height="138" fill="white"/>
</clipPath>
</defs>
</svg>
